HIERARCHY
ROOT Hips
{
	OFFSET 0.000000 0.000000 0.000000 
	CHANNELS 6 Xposition Yposition Zposition Zrotation Yrotation Xrotation
	JOINT LeftUpLeg
	{
		OFFSET 1.363060 -1.794630 0.839290 
		CHANNELS 3 Zrotation Yrotation Xrotation
		JOINT LeftLeg
		{
			OFFSET 2.448110 -6.726130 0.000000 
			CHANNELS 3 Zrotation Yrotation Xrotation
			JOINT LeftFoot
			{
				OFFSET 2.562200 -7.039590 0.000000 
				CHANNELS 3 Zrotation Yrotation Xrotation
				JOINT LeftToeBase
				{
					OFFSET 0.157640 -0.433110 2.322550 
					CHANNELS 3 Zrotation Yrotation Xrotation
					End Site
					{
						OFFSET 0.000000 0.000000 0.000000 
					}
				}
			}
		}
	}
	JOINT RightUpLeg
	{
		OFFSET -1.305520 -1.794630 0.839290 
		CHANNELS 3 Zrotation Yrotation Xrotation
		JOINT RightLeg
		{
			OFFSET -2.542530 -6.985550 0.000000 
			CHANNELS 3 Zrotation Yrotation Xrotation
			JOINT RightFoot
			{
				OFFSET -2.568260 -7.056230 0.000000 
				CHANNELS 3 Zrotation Yrotation Xrotation
				JOINT RightToeBase
				{
					OFFSET -0.164730 -0.452590 2.363150 
					CHANNELS 3 Zrotation Yrotation Xrotation
					End Site
					{
						OFFSET 0.000000 0.000000 0.000000 
					}
				}
			}
		}
	}
	JOINT Spine
	{
		OFFSET 0.028270 2.035590 -0.193380 
		CHANNELS 3 Zrotation Yrotation Xrotation
		JOINT Spine1
		{
			OFFSET 0.056720 2.048850 -0.042750 
			CHANNELS 3 Zrotation Yrotation Xrotation
			JOINT Neck1
			{
				OFFSET -0.054170 1.746240 0.172020 
				CHANNELS 3 Zrotation Yrotation Xrotation
				JOINT Head
				{
					OFFSET 0.104070 1.761360 -0.123970 
					CHANNELS 3 Zrotation Yrotation Xrotation
					End Site
					{
						OFFSET 0.000000 0.000000 0.000000 
					}
				}
			}
			JOINT LeftArm
			{
				OFFSET 3.362410 1.200890 -0.311210 
				CHANNELS 3 Zrotation Yrotation Xrotation
				JOINT LeftForeArm
				{
					OFFSET 4.983000 -0.000000 -0.000000 
					CHANNELS 3 Zrotation Yrotation Xrotation
					JOINT LeftHand
					{
						OFFSET 3.483560 -0.000000 -0.000000 
						CHANNELS 3 Zrotation Yrotation Xrotation
						JOINT LeftHandIndex1
						{
							OFFSET 0.715260 -0.000000 -0.000000 
							CHANNELS 3 Zrotation Yrotation Xrotation
							End Site
							{
								OFFSET 0.000000 0.000000 0.000000 
							}
						}
					}
				}
			}
			JOINT RightArm
			{
				OFFSET -3.136600 1.374050 -0.404650 
				CHANNELS 3 Zrotation Yrotation Xrotation
				JOINT RightForeArm
				{
					OFFSET -5.241900 -0.000000 -0.000000 
					CHANNELS 3 Zrotation Yrotation Xrotation
					JOINT RightHand
					{
						OFFSET -3.444170 -0.000000 -0.000000 
						CHANNELS 3 Zrotation Yrotation Xrotation
						JOINT RightHandIndex1
						{
							OFFSET -0.622530 -0.000000 -0.000000 
							CHANNELS 3 Zrotation Yrotation Xrotation
							End Site
							{
								OFFSET 0.000000 0.000000 0.000000 
							}
						}
					}
				}
			}
		}
	}
}
MOTION
Frames: 6
Frame Time: 0.041667
-21.477499 15.189647 0.808319 -44.379974 79.541765 -27.141180 -9.636128 10.864258 -64.529637 16.212181 19.691952 79.920236 0.577887 1.887982 -15.829169 0.610600 -5.001200 -13.912000 30.309426 -13.496237 22.844876 -0.246898 -5.305078 9.189211 -1.745911 2.023334 -28.531388 -1.436700 7.578200 -21.440100 0.372594 8.071600 0.742767 -5.868468 4.138365 1.233167 2.147038 0.975963 1.814016 -2.565100 0.178200 8.525600 -61.564953 49.738632 76.894189 50.637903 -53.168118 -27.344203 -0.791282 0.025357 -36.908134 -7.125000 0.000000 0.000000 83.469711 33.799311 55.405729 -116.318313 53.473010 -78.996320 1.478390 -1.086250 -23.213576 7.125000 0.000000 0.000000 
-21.151991 15.205235 0.794565 -41.239682 79.476868 -23.399232 -10.190115 10.948222 -62.815444 15.931335 19.670597 79.141718 0.659384 1.673278 -16.430846 0.794400 -5.689300 -15.885700 29.319542 -12.942340 23.429055 -0.295860 -5.349949 9.403075 -1.450133 1.511649 -26.262280 -1.624800 8.036400 -22.824700 0.047713 8.268989 0.658273 -6.500890 4.296346 1.312350 2.694070 0.509761 1.680053 -2.276700 0.028900 8.334300 -60.602846 50.032399 76.076064 51.495359 -53.497567 -28.086952 -0.806481 0.023569 -35.503010 -7.125000 0.000000 0.000000 82.523512 32.613215 55.314494 -118.456601 52.882683 -81.129774 1.449294 -1.015879 -23.430367 7.125000 0.000000 0.000000 
-20.800810 15.231418 0.765631 -37.382958 79.359567 -19.278056 -10.963405 11.186336 -60.442573 15.465022 19.616894 77.829421 0.806140 1.127524 -17.276025 1.000200 -6.364300 -17.845000 27.991107 -12.481356 24.029975 -0.370362 -5.650834 10.349498 -1.169900 0.956940 -23.868249 -1.634200 8.058500 -22.891900 -0.250692 8.421684 0.704152 -7.014859 4.443382 1.690246 3.098412 0.228947 1.505178 -2.013100 -0.062900 8.152400 -60.616915 49.619977 74.582424 52.042577 -53.703768 -28.570994 -0.825321 0.006708 -35.112262 -7.125000 0.000000 0.000000 81.649055 31.055946 55.447281 -120.606873 52.273129 -83.224721 1.426763 -0.955002 -22.929828 7.125000 0.000000 0.000000 
-20.476015 15.262390 0.745051 -33.730772 79.762692 -15.137092 -11.939664 10.750710 -58.390589 14.996218 19.632467 76.547652 1.104959 -0.664346 -18.202401 1.367000 -7.399800 -20.905500 26.949813 -11.828298 23.911524 -0.488310 -6.199084 11.986530 -0.921720 0.029014 -21.621419 -1.248600 7.084500 -19.966000 -0.495223 8.250223 0.733658 -7.201053 4.404731 2.030170 3.459868 0.020418 1.373369 -1.757600 -0.131100 8.086200 -61.582866 48.679628 72.464481 52.468165 -53.839405 -28.932634 -0.847381 -0.013396 -35.593997 -7.125000 0.000000 0.000000 80.852949 29.441023 55.971041 -122.122397 51.823582 -84.650440 1.416905 -0.925398 -22.179599 7.125000 0.000000 0.000000 
-20.155499 15.297742 0.731093 -29.818563 80.233141 -10.716930 -12.969456 10.271870 -56.488023 14.544126 19.639714 75.271568 1.538512 -3.412554 -19.427981 1.181900 -6.899700 -19.418500 26.187769 -10.927868 23.413487 -0.658218 -6.933178 14.167040 -0.685619 -1.382575 -19.309212 -0.815100 5.761100 -16.092800 -0.710574 7.980519 0.673673 -7.275454 4.295105 1.994188 3.855565 -0.173417 1.224896 -1.456500 -0.195200 7.988500 -62.715813 47.704638 70.283521 53.266307 -54.081725 -29.587892 -0.858547 -0.040730 -35.964334 -7.125000 0.000000 0.000000 80.178668 27.219366 56.805700 -123.049230 51.526008 -85.447627 1.431561 -0.960877 -21.286773 7.125000 0.000000 0.000000 
-19.834882 15.334012 0.721313 -28.197432 80.548599 -8.532016 -13.647663 9.999502 -54.949527 14.112160 19.631157 74.065229 1.733111 -4.077523 -20.373310 1.410800 -7.512600 -21.243100 26.347543 -9.657008 22.396554 -0.909245 -7.918339 17.060735 -0.470023 -3.124946 -16.918790 -0.379500 3.956300 -10.953800 -0.870163 7.785555 0.574079 -7.449927 4.232643 1.831844 4.088561 -0.302120 1.015019 -1.237500 -0.250300 7.817500 -63.651170 46.343223 68.488563 53.843917 -54.240395 -30.061768 -0.868126 -0.064644 -36.844989 -7.125000 0.000000 0.000000 79.651266 24.463971 57.616844 -123.371400 51.398842 -85.663202 1.441605 -0.966030 -19.990589 7.125000 0.000000 0.000000 
